<?xml version="1.0" encoding="utf-8"?>
<!-- Generator: Adobe Illustrator 16.0.0, SVG Export Plug-In . SVG Version: 6.00 Build 0)  -->
<!DOCTYPE svg PUBLIC "-//W3C//DTD SVG 1.1//EN" "http://www.w3.org/Graphics/SVG/1.1/DTD/svg11.dtd">
<svg version="1.1" id="Layer_1" xmlns="http://www.w3.org/2000/svg" xmlns:xlink="http://www.w3.org/1999/xlink" x="0px" y="0px"
	 width="805.389px" height="214px" viewBox="-558.751 107.75 805.389 214" enable-background="new -558.751 107.75 805.389 214"
	 xml:space="preserve">
<g>
	<path fill="#4B4037" d="M1323.521-196.25h-59.072h-33.295v33h33v24.896c0,0.432,0.113,0.864,0.113,1.3
		c0,16.306,14.043,29.525,30.885,29.525c13.127,0,24.002-8.032,29.002-19.295v24.573h-0.412c0.064,17,13.406,29.409,29.859,29.409
		s29.795-12.409,29.859-29.409h-0.307v-60.39v-33.61H1323.521z"/>
	<path fill="#4B4037" d="M1323.521-196.25h-59.072h-33.295v33h33v24.896c0,0.432,0.113,0.864,0.113,1.3
		c0,16.306,14.043,29.525,30.885,29.525c13.127,0,24.002-8.032,29.002-19.295l-0.412,24.573c0.064,17,13.406,29.409,29.859,29.409
		s29.795-12.409,29.859-29.409l-0.307-60.39v-33.61H1323.521z"/>
	<path fill="#4B4037" d="M1497.154-119.205v-44.045h32v-33h-116v94h-0.144c-0.128,32-26.778,59.111-59.409,59.111
		c-24.203,0-45.115-14.388-54.355-35.129c-1.436,0.104-2.883,0.216-4.336,0.216c-21.718,0-40.774-11.53-51.32-28.561
		c-18.041,14.692-42.341,42.861-42.341,88.556c0,72.668,62.175,168.807,62.175,168.807h116.564h116.134
		c0,0,62.335-96.126,62.335-168.795C1558.457-90.713,1497.154-119.205,1497.154-119.205z M1415.172,131.886l33.445-95.136h-68.797
		l103.288-142.118l-26.673,93.118h63.011L1415.172,131.886z"/>
</g>
<g>
	<path fill="#4B4037" d="M-483.374,107.75h-36.417h-20.056v20h20v16.01c0,0.266,0.007,0.533,0.007,0.802
		c0,10.052,8.694,18.201,19.077,18.201c8.092,0,14.916-4.951,17.916-11.895v14.882h-0.392c0.039,11,8.264,18.13,18.407,18.13
		c10.143,0,18.368-7.13,18.407-18.13h-0.423v-36.963V107.75H-483.374z"/>
	<path fill="#4B4037" d="M-483.374,107.75h-36.417h-20.056v20h20v16.01c0,0.266,0.007,0.533,0.007,0.802
		c0,10.052,8.625,18.201,19.008,18.201c8.093,0,14.781-4.951,17.863-11.895l-0.262,15.148c0.039,10.479,8.26,18.13,18.403,18.13
		c10.143,0,18.249-7.65,18.288-18.13l-0.308-37.229V107.75H-483.374z"/>
	<path fill="#4B4037" d="M-375.846,155.564V127.75h19v-20h-71v58h-0.36c-0.079,20-16.508,36.574-36.624,36.574
		c-14.92,0-27.813-8.804-33.509-21.591c-0.885,0.064-1.777,0.167-2.673,0.167c-13.388,0-25.136-7.091-31.637-17.59
		c-11.122,9.057-26.102,26.313-26.102,54.483c0,44.798,38.329,103.956,38.329,103.956h71.858h71.593
		c0,0,38.672-59.143,38.672-103.939C-338.299,173.012-375.846,155.564-375.846,155.564z M-426.874,310.502l20.618-58.752h-42.411
		l63.674-87.508l-16.443,57.508h38.844L-426.874,310.502z"/>
</g>
<g>
	<path fill="#4B4037" d="M524.636,1027.75h-54.795h-29.688v30h30v24.187c0,0.4-0.187,0.803-0.187,1.207
		c0,15.124,12.843,27.386,28.466,27.386c12.176,0,22.721-7.449,26.721-17.896v22.117h-0.313c0.059,17,12.434,27.279,27.697,27.279
		c15.26,0,27.637-10.279,27.695-27.279h-1.08v-55.342v-31.658H524.636z"/>
	<path fill="#4B4037" d="M524.636,1027.75h-54.795h-29.688v30h30v24.187c0,0.4-0.187,0.803-0.187,1.207
		c0,15.124,12.878,27.386,28.501,27.386c12.178,0,22.189-7.449,26.828-17.896l-0.418,22.793
		c0.059,15.768,12.415,27.279,27.677,27.279s27.231-11.512,27.29-27.279l-0.691-56.018v-31.658H524.636z"/>
	<path fill="#4B4037" d="M686.154,1099.699v-41.949h29v-30h-107v87h-0.51c-0.119,30-24.838,55.168-55.105,55.168
		c-22.451,0-41.85-13.177-50.42-32.417c-1.332,0.097-2.674,0.285-4.021,0.285c-20.145,0-37.822-10.652-47.604-26.449
		c-16.734,13.627-39.273,39.601-39.273,81.986c0,67.405,57.672,156.427,57.672,156.427h108.121h107.723
		c0,0,58.05-88.989,58.05-156.393C742.786,1125.951,686.154,1099.699,686.154,1099.699z M609.648,1333.221l31.023-88.471h-63.814
		l95.807-131.6l-24.74,86.6h58.447L609.648,1333.221z"/>
</g>
<g>
	<path fill="#4B4037" d="M-131.981,285.422c0,9.596-3.258,16.967-9.769,22.108c-6.514,5.142-14.638,7.712-24.371,7.712h-87.612
		c-9.599,0-17.687-2.57-24.268-7.712s-9.872-12.513-9.872-22.108v-21.8c0-9.596,3.291-16.968,9.872-22.109
		c6.581-5.141,14.669-7.711,24.268-7.711h87.612c9.733,0,17.857,2.57,24.371,7.711c6.51,5.142,9.769,12.514,9.769,22.109V285.422z
		 M-135.477,157.707h27.147v23.445c0,4.25-1.269,7.336-3.804,9.254c-2.539,1.922-6.067,2.879-10.592,2.879h-12.751v21.801
		c0,4.251-1.439,7.645-4.318,10.181c-2.879,2.538-6.72,3.804-11.517,3.804h-25.913v-9.871c-5.212,2.744-11.244,4.663-18.098,5.758
		c-6.993,1.1-13.3,1.646-18.921,1.646h-61.493c-3.978,0-6.96-0.891-8.946-2.674c-1.989-1.78-2.982-4.659-2.982-8.639v-89.462
		h101.802v20.565c0,3.979-0.996,6.858-2.982,8.639c-1.989,1.783-4.971,2.674-8.946,2.674h-47.919v36.813h33.112
		c5.62,0,11.584-0.617,17.892-1.851c6.17-1.097,11.997-2.741,17.481-4.937v-62.315h41.749V157.707z M-173.935,273.494
		c0-2.192-0.617-3.977-1.851-5.349c-1.234-1.367-4.045-2.056-8.432-2.056h-51.415c-4.251,0-7.028,0.688-8.329,2.056
		c-1.304,1.372-1.954,3.156-1.954,5.349v1.439c0,2.194,0.649,3.978,1.954,5.347c1.301,1.369,4.078,2.057,8.329,2.057h51.415
		c4.387,0,7.198-0.688,8.432-2.057s1.851-3.152,1.851-5.347V273.494z"/>
	<path fill="#4B4037" d="M64.835,286.861c0,7.95-3.532,14.635-10.592,20.052c-7.063,5.414-15.666,8.123-25.811,8.123h-91.313
		c-10.148,0-18.75-2.709-25.81-8.123c-7.063-5.417-10.592-12.102-10.592-20.052v-14.396c0-8.089,3.528-14.808,10.592-20.155
		c7.06-5.348,15.662-8.021,25.81-8.021h25.502v-7.608H-92.29c-4.389,0-7.68-0.994-9.872-2.983c-2.194-1.984-3.29-5.173-3.29-9.563
		v-18.51H71.005v18.51c0,4.39-1.099,7.578-3.292,9.563c-2.195,1.989-5.484,2.983-9.872,2.983H4.37v1.851
		c0,2.333-0.411,4.252-1.234,5.758h25.296c10.145,0,18.748,2.674,25.811,8.021c7.06,5.348,10.592,12.066,10.592,20.155V286.861z
		 M-17.018,176.422c-6.035,7.541-16.796,13.507-32.289,17.893c-15.495,4.39-31.81,6.582-48.947,6.582V172.72
		c14.808,0,28.587-2.469,41.337-7.404c3.976-1.507,7.333-3.357,10.078-5.552h-36.813c-3.978,0-6.96-0.891-8.946-2.674
		c-1.99-1.78-2.982-4.659-2.982-8.638V130.56h57.996v-15.836H3.754v15.836h57.174v17.893c0,3.979-0.997,6.857-2.983,8.638
		c-1.989,1.783-4.971,2.674-8.946,2.674H13.008c2.741,2.194,6.1,4.045,10.078,5.552c12.885,4.936,26.597,7.404,41.131,7.404v28.177
		c-17.14,0-33.455-2.192-48.947-6.582C-0.224,189.929-10.986,183.963-17.018,176.422z M24.32,279.663
		c0-1.507-0.688-2.57-2.057-3.188c-1.372-0.615-4.39-0.925-9.048-0.925H-47.25c-4.662,0-7.68,0.31-9.049,0.925
		c-1.372,0.618-2.057,1.682-2.057,3.188c0,1.369,0.685,2.433,2.057,3.188c1.369,0.753,4.387,1.131,9.049,1.131h60.465
		c4.659,0,7.676-0.378,9.048-1.131C23.632,282.096,24.32,281.032,24.32,279.663z"/>
	<path fill="#4B4037" d="M139.076,212.206c-4.937,7.815-13.162,14.088-24.679,18.818c-11.518,4.73-22.282,7.167-32.289,7.301
		v-33.728c8.637-0.958,16.658-4.937,24.062-11.928c6.854-6.306,10.556-18.028,11.104-35.169H94.859c-3.979,0-6.96-0.891-8.947-2.673
		c-1.989-1.781-2.981-4.66-2.981-8.639v-20.36h110.234v20.36c0,3.979-0.996,6.857-2.982,8.639c-1.989,1.782-4.97,2.673-8.945,2.673
		h-21.184c0.546,17.141,3.976,28.863,10.283,35.169c6.991,6.991,14.876,10.97,23.651,11.928v33.728
		c-10.011-0.134-20.565-2.57-31.672-7.301S143.464,220.021,139.076,212.206z M112.547,314.42c-4.252,0-7.577-1.132-9.975-3.394
		c-2.401-2.262-3.6-5.449-3.6-9.563v-58.202h41.955v39.075h105.71v19.127c0,4.113-1.234,7.301-3.703,9.563
		c-2.468,2.262-5.829,3.394-10.077,3.394H112.547z M246.02,244.701c0,4.251-1.44,7.646-4.319,10.18
		c-2.88,2.539-6.719,3.806-11.518,3.806h-25.912v-64.783h-12.545c-3.43,0-6.242-1.061-8.433-3.188
		c-2.194-2.124-3.292-4.9-3.292-8.329v-19.332h24.27v-37.636h41.749V244.701z"/>
</g>
<g>
	<path fill="#4B4037" d="M485.996,1525.504c0,7.841-2.662,13.864-7.98,18.065c-5.324,4.201-11.963,6.302-19.916,6.302h-71.59
		c-7.844,0-14.453-2.101-19.83-6.302c-5.379-4.201-8.068-10.225-8.068-18.065v-17.813c0-7.841,2.689-13.865,8.068-18.066
		c5.377-4.201,11.986-6.301,19.83-6.301h71.59c7.953,0,14.592,2.1,19.916,6.301c5.318,4.201,7.98,10.226,7.98,18.066V1525.504z
		 M483.138,1421.143h22.184v19.158c0,3.473-1.037,5.995-3.107,7.563c-2.074,1.57-4.959,2.352-8.656,2.352h-10.42v17.814
		c0,3.474-1.176,6.247-3.527,8.319c-2.354,2.074-5.492,3.108-9.412,3.108h-21.174v-8.066c-4.26,2.242-9.188,3.811-14.789,4.705
		c-5.715,0.898-10.867,1.346-15.461,1.346h-50.248c-3.25,0-5.688-0.729-7.311-2.186c-1.625-1.455-2.438-3.807-2.438-7.059v-73.104
		h83.188v16.806c0,3.251-0.814,5.604-2.438,7.059c-1.625,1.457-4.063,2.185-7.309,2.185h-39.158v30.082h27.057
		c4.594,0,9.467-0.504,14.621-1.512c5.041-0.896,9.803-2.24,14.285-4.034v-50.921h34.113V1421.143z M451.715,1515.757
		c0-1.791-0.506-3.249-1.514-4.37c-1.008-1.117-3.305-1.68-6.891-1.68h-42.014c-3.473,0-5.742,0.563-6.805,1.68
		c-1.066,1.121-1.598,2.579-1.598,4.37v1.177c0,1.793,0.531,3.25,1.598,4.369c1.063,1.118,3.332,1.68,6.805,1.68h42.014
		c3.586,0,5.883-0.562,6.891-1.68c1.008-1.119,1.514-2.576,1.514-4.369V1515.757z"/>
	<path fill="#4B4037" d="M646.822,1526.68c0,6.497-2.887,11.959-8.654,16.386c-5.771,4.424-12.801,6.638-21.092,6.638h-74.615
		c-8.291,0-15.322-2.214-21.09-6.638c-5.773-4.427-8.654-9.889-8.654-16.386v-11.763c0-6.61,2.881-12.101,8.654-16.47
		c5.768-4.37,12.799-6.555,21.09-6.555h20.84v-6.217h-44.871c-3.588,0-6.275-0.813-8.066-2.438
		c-1.793-1.621-2.689-4.227-2.689-7.813v-15.125h144.191v15.125c0,3.587-0.9,6.192-2.689,7.813
		c-1.795,1.626-4.482,2.438-8.068,2.438h-43.693v1.512c0,1.906-0.336,3.475-1.008,4.705h20.67c8.291,0,15.32,2.185,21.092,6.555
		c5.768,4.369,8.654,9.859,8.654,16.47V1526.68z M579.937,1436.436c-4.932,6.162-13.727,11.037-26.385,14.621
		c-12.662,3.587-25.992,5.378-39.998,5.378v-23.024c12.102,0,23.361-2.018,33.779-6.05c3.248-1.231,5.994-2.744,8.236-4.537h-30.082
		c-3.25,0-5.688-0.728-7.311-2.185c-1.625-1.455-2.438-3.808-2.438-7.059v-14.62h47.391v-12.94h33.779v12.94h46.719v14.62
		c0,3.251-0.814,5.604-2.438,7.059c-1.625,1.457-4.061,2.185-7.309,2.185h-29.41c2.24,1.793,4.984,3.306,8.234,4.537
		c10.529,4.032,21.734,6.05,33.611,6.05v23.024c-14.006,0-27.338-1.791-39.996-5.378
		C593.66,1447.473,584.865,1442.598,579.937,1436.436z M613.715,1520.798c0-1.231-0.561-2.101-1.68-2.605
		c-1.121-0.503-3.588-0.756-7.395-0.756h-49.408c-3.809,0-6.275,0.253-7.395,0.756c-1.119,0.505-1.68,1.374-1.68,2.605
		c0,1.119,0.561,1.988,1.68,2.604c1.119,0.615,3.586,0.924,7.395,0.924h49.408c3.807,0,6.273-0.309,7.395-0.924
		C613.154,1522.786,613.715,1521.917,613.715,1520.798z"/>
	<path fill="#4B4037" d="M707.486,1465.676c-4.031,6.387-10.754,11.512-20.164,15.378c-9.412,3.865-18.209,5.856-26.385,5.966
		v-27.561c7.057-0.783,13.611-4.033,19.662-9.746c5.6-5.153,8.625-14.732,9.074-28.738h-18.318c-3.25,0-5.686-0.728-7.311-2.184
		s-2.436-3.809-2.436-7.06v-16.638h90.076v16.638c0,3.251-0.813,5.604-2.436,7.06c-1.627,1.456-4.063,2.184-7.311,2.184h-17.311
		c0.445,14.006,3.248,23.585,8.404,28.738c5.711,5.713,12.154,8.963,19.324,9.746v27.561c-8.18-0.109-16.803-2.101-25.879-5.966
		C717.402,1477.188,711.074,1472.063,707.486,1465.676z M685.808,1549.199c-3.475,0-6.189-0.925-8.15-2.773
		c-1.961-1.848-2.941-4.452-2.941-7.813v-47.56H709v31.93h86.381v15.63c0,3.361-1.008,5.966-3.025,7.813
		c-2.018,1.849-4.766,2.773-8.236,2.773H685.808z M794.877,1492.229c0,3.474-1.178,6.247-3.531,8.318
		c-2.352,2.074-5.49,3.109-9.41,3.109h-21.174v-52.937H750.51c-2.803,0-5.102-0.867-6.891-2.605
		c-1.793-1.736-2.689-4.005-2.689-6.807v-15.797h19.832v-30.754h34.115V1492.229z"/>
</g>
<text transform="matrix(1 0 0 1 987.5876 634.2422)" font-family="'TmonMonsoriBlack'" font-size="218.994">당충전</text>
</svg>
